<?xml version="1.0" encoding="UTF-8"?>
<svg version="1.1" xmlns="http://www.w3.org/2000/svg" width="111" height="110">
<path d="M0 0 C8.7353378 6.41273126 16.58984994 17.81324497 18.953125 28.5078125 C20.87812549 44.63460233 18.61136954 57.86987116 8.625 70.95703125 C1.32958547 79.80086029 -7.49381087 85.2259285 -18.6640625 87.71484375 C-19.6128125 87.94171875 -20.5615625 88.16859375 -21.5390625 88.40234375 C-35.27787672 89.77622517 -48.61841232 87.6094989 -59.6640625 78.71484375 C-61.71347712 76.38734871 -63.53457448 74.02847293 -65.2890625 71.47265625 C-65.7428125 70.89257812 -66.1965625 70.3125 -66.6640625 69.71484375 C-67.3240625 69.71484375 -67.9840625 69.71484375 -68.6640625 69.71484375 C-77.33418986 59.0160515 -78.92506969 45.0254752 -77.6640625 31.71484375 C-74.79786056 17.81530531 -68.39041678 7.78099515 -57.6640625 -1.28515625 C-54.44836345 -3.37464177 -51.22869168 -4.8910686 -47.6640625 -6.28515625 C-47.00664063 -6.60097656 -46.34921875 -6.91679688 -45.671875 -7.2421875 C-30.54200351 -13.68857243 -12.91017324 -8.74858444 0 0 Z M-10.6640625 6.71484375 C-11.88096783 8.4801397 -11.88096783 8.4801397 -12.6640625 10.71484375 C-12.3546875 11.28203125 -12.0453125 11.84921875 -11.7265625 12.43359375 C-10.28466986 15.52942207 -10.47113397 18.06841719 -10.5390625 21.46484375 C-10.55710937 22.6353125 -10.57515625 23.80578125 -10.59375 25.01171875 C-10.62855469 26.34976563 -10.62855469 26.34976563 -10.6640625 27.71484375 C-14.6240625 28.20984375 -14.6240625 28.20984375 -18.6640625 28.71484375 C-17.42529605 34.40789808 -16.10130247 40.06854388 -14.6640625 45.71484375 C-13.5503125 45.81796875 -12.4365625 45.92109375 -11.2890625 46.02734375 C-9.4946875 46.36765625 -9.4946875 46.36765625 -7.6640625 46.71484375 C-5.5121188 49.9427593 -5.46319807 50.99885184 -5.6640625 54.71484375 C-3.3540625 54.05484375 -1.0440625 53.39484375 1.3359375 52.71484375 C3.66808174 56.35881912 3.56757808 59.46809987 3.3359375 63.71484375 C3.0059375 64.70484375 2.6759375 65.69484375 2.3359375 66.71484375 C4.3007614 66.19674015 4.3007614 66.19674015 6.3359375 64.71484375 C10.75624596 55.65942924 14.21094424 43.68268149 11.3359375 33.71484375 C9.43345561 28.44490261 7.45075008 23.38706262 4.3359375 18.71484375 C3.6759375 18.71484375 3.0159375 18.71484375 2.3359375 18.71484375 C2.3359375 18.05484375 2.3359375 17.39484375 2.3359375 16.71484375 C0.58872076 15.50231039 -1.21354124 14.36843293 -3.0390625 13.27734375 C-8.44486479 10.04364031 -8.44486479 10.04364031 -10.6640625 6.71484375 Z M-60.7421875 18.7109375 C-68.89701229 27.52169384 -70.49324672 35.57983132 -70.05078125 47.3125 C-69.57752221 54.28896534 -67.88082757 60.77992507 -62.9140625 65.90234375 C-62.1715625 66.50046875 -61.4290625 67.09859375 -60.6640625 67.71484375 C-61.0353125 66.53921875 -61.4065625 65.36359375 -61.7890625 64.15234375 C-62.93647667 59.68220938 -62.26607173 56.98686835 -60.6640625 52.71484375 C-56.88860862 53.80553043 -54.19362778 54.62315285 -51.6640625 57.71484375 C-52.0146875 56.62171875 -52.3653125 55.52859375 -52.7265625 54.40234375 C-53.6640625 50.71484375 -53.6640625 50.71484375 -52.6640625 47.71484375 C-49.43614695 45.56290005 -48.38005441 45.51397932 -44.6640625 45.71484375 C-43.07244171 40.14417098 -42.45731306 35.50382794 -42.6640625 29.71484375 C-44.6440625 29.71484375 -46.6240625 29.71484375 -48.6640625 29.71484375 C-48.71847906 27.81933353 -48.75704285 25.92336455 -48.7890625 24.02734375 C-48.81226562 22.97160156 -48.83546875 21.91585937 -48.859375 20.828125 C-48.66176331 17.67819458 -47.89981701 15.58498326 -46.6640625 12.71484375 C-46.95146175 10.47243593 -46.95146175 10.47243593 -47.6640625 8.71484375 C-51.76251648 8.71484375 -57.90033104 15.98125958 -60.7421875 18.7109375 Z M-37.18359375 20.21875 C-41.87892321 24.96363439 -42.04403289 34.38897208 -42.6640625 40.71484375 C-42.56270894 43.2040872 -42.22988826 45.28179298 -41.6640625 47.71484375 C-38.6640625 49.04817708 -38.6640625 49.04817708 -35.6640625 47.71484375 C-35.6640625 49.36484375 -35.6640625 51.01484375 -35.6640625 52.71484375 C-34.6740625 53.04484375 -33.6840625 53.37484375 -32.6640625 53.71484375 C-31.9765625 55.77734375 -31.9765625 55.77734375 -31.6640625 57.71484375 C-30.6740625 57.21984375 -30.6740625 57.21984375 -29.6640625 56.71484375 C-30.1590625 55.22984375 -30.1590625 55.22984375 -30.6640625 53.71484375 C-30.0040625 53.71484375 -29.3440625 53.71484375 -28.6640625 53.71484375 C-28.3340625 55.03484375 -28.0040625 56.35484375 -27.6640625 57.71484375 C-27.3959375 56.91046875 -27.1278125 56.10609375 -26.8515625 55.27734375 C-26.4596875 54.43171875 -26.0678125 53.58609375 -25.6640625 52.71484375 C-24.1790625 52.21984375 -24.1790625 52.21984375 -22.6640625 51.71484375 C-21.96011638 50.40081099 -21.30060592 49.06281805 -20.6640625 47.71484375 C-19.3590044 46.02594503 -18.03045592 44.35451585 -16.6640625 42.71484375 C-16.97601563 42.04582031 -17.28796875 41.37679687 -17.609375 40.6875 C-19.27520207 35.99233556 -19.4461778 31.1493721 -19.90625 26.2109375 C-20.74305921 22.35040016 -21.53978689 21.05091089 -24.6640625 18.71484375 C-29.76898643 17.17373464 -32.69609431 17.74395054 -37.18359375 20.21875 Z M-25.6640625 53.71484375 C-26.80759166 56.00190206 -26.76740689 57.30749137 -26.7265625 59.83984375 C-26.7059375 61.11859375 -26.6853125 62.39734375 -26.6640625 63.71484375 C-26.0040625 63.38484375 -25.3440625 63.05484375 -24.6640625 62.71484375 C-24.19755043 60.58907593 -24.19755043 60.58907593 -24.0390625 58.15234375 C-23.96429688 57.32605469 -23.88953125 56.49976562 -23.8125 55.6484375 C-23.76351562 55.01035156 -23.71453125 54.37226562 -23.6640625 53.71484375 C-24.3240625 53.71484375 -24.9840625 53.71484375 -25.6640625 53.71484375 Z M-35.6640625 54.71484375 C-35.3340625 57.68484375 -35.0040625 60.65484375 -34.6640625 63.71484375 C-34.3340625 63.71484375 -34.0040625 63.71484375 -33.6640625 63.71484375 C-33.3340625 60.74484375 -33.0040625 57.77484375 -32.6640625 54.71484375 C-33.6540625 54.71484375 -34.6440625 54.71484375 -35.6640625 54.71484375 Z M-6.6640625 54.71484375 C-5.6640625 56.71484375 -5.6640625 56.71484375 -5.6640625 56.71484375 Z M-7.6640625 56.71484375 C-6.6640625 58.71484375 -6.6640625 58.71484375 -6.6640625 58.71484375 Z " fill="#000000" transform="translate(84.6640625,14.28515625)"/>
<path d="M0 0 C3.71884134 3.71884134 3.05539879 9.43114905 3.0625 14.4375 C3.04663375 15.95839326 3.02753831 17.4792733 3 19 C2.34 19 1.68 19 1 19 C1.020625 17.72125 1.04125 16.4425 1.0625 15.125 C1.07058755 10.03792983 0.59020789 5.0483853 0 0 Z " fill="#000000" transform="translate(82,36)"/>
<path d="M0 0 C0.66 0.33 1.32 0.66 2 1 C1.34 6.61 0.68 12.22 0 18 C-0.33 18 -0.66 18 -1 18 C-1.02707139 15.75006641 -1.04642829 13.50003905 -1.0625 11.25 C-1.07410156 9.99703125 -1.08570312 8.7440625 -1.09765625 7.453125 C-1.02021027 4.71463499 -0.82780815 2.58119707 0 0 Z " fill="#000000" transform="translate(27,38)"/>
<path d="M0 0 C4.45595815 6.68393723 4.25364533 13.20745184 4 21 C3.34 21.33 2.68 21.66 2 22 C1.86722656 20.90300781 1.73445313 19.80601563 1.59765625 18.67578125 C1.41937015 17.22134199 1.2409792 15.76691558 1.0625 14.3125 C0.97548828 13.59126953 0.88847656 12.87003906 0.79882812 12.12695312 C0.42076907 9.06047414 0.01440552 6.06773278 -0.62890625 3.04296875 C-0.75136719 2.36878906 -0.87382813 1.69460937 -1 1 C-0.67 0.67 -0.34 0.34 0 0 Z " fill="#000000" transform="translate(91,41)"/>
<path d="M0 0 C1.01573289 3.04719867 1.0097124 3.98833004 0.44140625 7.01171875 C0.30283203 7.76904297 0.16425781 8.52636719 0.02148438 9.30664062 C-0.12998047 10.09232422 -0.28144531 10.87800781 -0.4375 11.6875 C-0.58509766 12.48478516 -0.73269531 13.28207031 -0.88476562 14.10351562 C-1.24984964 16.07025852 -1.62405289 18.03530467 -2 20 C-2.33 20 -2.66 20 -3 20 C-3.3689719 12.68889006 -2.81552726 6.78743178 0 0 Z " fill="#000000" transform="translate(19,42)"/>
<path d="M0 0 C2.33944736 0.28730055 4.6739143 0.61936779 7 1 C7 1.99 7 2.98 7 4 C5.35 4.33 3.7 4.66 2 5 C1.01 3.68 0.02 2.36 -1 1 C-0.67 0.67 -0.34 0.34 0 0 Z " fill="#000000" transform="translate(45,55)"/>
<path d="M0 0 C-0.33 1.32 -0.66 2.64 -1 4 C-2.98 4.33 -4.96 4.66 -7 5 C-7 3.68 -7 2.36 -7 1 C-4.50935112 0.31292445 -2.62113708 0 0 0 Z " fill="#000000" transform="translate(65,54)"/>
</svg>
