<svg xmlns="http://www.w3.org/2000/svg" xml:space="preserve" width="67.632202mm" height="67.971512mm"
    viewBox="0 0 67.632202 67.971512">
    <path
        d="M21.882 37.818c-1.657-.84-3.878-1.289-6.361-1.289-1.781 0-2.32-.08-2.215-.33.077-.183 1.94-4.44 4.14-9.46s4.11-9.396 4.248-9.723.344-.595.46-.595c.115 0 1.273 1.487 2.573 3.306s2.442 3.217 2.538 3.109c.146-.163 3.318-7.534 4.84-11.244.223-.546.502-.992.62-.992s1.041 1.012 2.054 2.249 1.876 2.249 1.919 2.249c.042 0 .653-1.22 1.357-2.712C43.815.187 44.025-.227 44.304.052c.073.073-.22 2.149-.653 4.613-.431 2.464-1.267 7.278-1.857 10.697-.59 3.42-1.247 7.076-1.46 8.125s-.388 1.972-.388 2.05c0 .489-.588-.135-1.984-2.102-.873-1.23-1.647-2.238-1.72-2.24-.073 0-1.327 2.934-2.786 6.522s-2.77 6.553-2.91 6.588c-.142.036-1.016-.827-1.945-1.917-.928-1.09-1.78-1.884-1.894-1.765-.114.12-.768 1.643-1.454 3.385-1.973 5.012-1.67 4.67-3.37 3.81M31.744 53.089c0-1.965-.735-5.15-1.58-6.838-.44-.883-.801-1.629-.801-1.658 0-.03.744-.387 1.654-.794.91-.406 2.368-1.066 3.24-1.465.874-.4 2.044-.915 2.602-1.145l1.013-.418-1.216-1.052c-.67-.58-1.631-1.37-2.138-1.756-.507-.387-.922-.785-.922-.885s2.828-1.416 6.284-2.924 6.38-2.823 6.497-2.923-.813-.93-2.065-1.846-2.182-1.747-2.065-1.848c.187-.16 3.969-.977 7.489-1.617.655-.12 4.916-.977 9.468-1.907 4.553-.93 8.337-1.595 8.409-1.479.172.278-.65.721-8.468 4.564l-6.599 3.244 2.233 1.798c1.228.989 2.273 1.907 2.322 2.04.084.223-2.14 1.328-9.274 4.609-1.56.717-2.75 1.387-2.646 1.49s1.674 1.152 3.488 2.333c1.815 1.18 3.352 2.2 3.416 2.263.104.104-2.267 1.266-6.186 3.033-.727.328-4.146 1.89-7.598 3.472s-6.339 2.876-6.416 2.876-.14-.525-.14-1.167M12.033 67.744C6.369 66.608 1.737 62.044.41 56.29c-1.628-7.059 1.672-13.709 8.48-17.086 1.552-.77 4.914-1.617 6.422-1.617 1.713 0 4.77.847 6.907 1.914 5.216 2.604 8.21 7.442 8.198 13.247-.009 4.261-1.456 7.737-4.49 10.779-2.195 2.202-4.317 3.407-7.194 4.085-1.78.42-4.953.482-6.7.132"
        style="fill:#000;stroke-width:.264583" />
</svg>