<svg version="1.0" xmlns="http://www.w3.org/2000/svg" width="300" height="300" viewBox="0 0 300.000000 252.000000" preserveAspectRatio="xMidYMid " class="svg" style="width: 128px; height: 128px;">
<g transform="translate(0.000000,252.000000) scale(0.100000,-0.100000)" fill="#060606" stroke="none">
<path d="M2495 2510 c-38 -3 -136 -13 -216 -20 l-146 -14 -12 -95 c-20 -156
-86 -415 -153 -600 -47 -129 -253 -592 -347 -780 -23 -44 -41 -82 -41 -85 0
-5 126 -127 167 -161 l33 -27 20 49 c12 26 31 71 42 98 28 64 196 395 322 633
222 422 303 596 392 850 30 84 54 155 54 158 0 4 -12 4 -115 -6z" id="node1" class="node"></path>
<path d="M410 2415 c0 -8 90 -278 94 -282 4 -4 207 35 213 41 3 2 -5 35 -17
73 l-23 69 -111 45 c-127 53 -156 63 -156 54z" id="node2" class="node"></path>
<path d="M1255 2120 c-66 -5 -221 -16 -345 -25 -124 -9 -283 -22 -355 -30 -72
-8 -186 -19 -255 -26 -69 -6 -126 -12 -126 -13 -3 -2 -84 -403 -84 -415 0 -7
5 -9 11 -5 24 15 537 151 674 179 144 29 364 64 470 75 61 5 130 12 155 15 71
8 347 8 435 0 l80 -7 36 118 c20 66 33 123 29 127 -10 12 -585 17 -725 7z" id="node3" class="node"></path>
<path d="M2467 1947 c-26 -57 -47 -109 -47 -114 0 -5 55 -20 123 -32 67 -12
145 -28 172 -35 28 -8 53 -12 56 -10 3 2 9 43 13 91 4 49 9 109 12 134 l6 46
-108 7 c-60 4 -125 9 -145 12 l-36 5 -46 -104z" id="node4" class="node"></path>
<path d="M935 1704 c-11 -2 -65 -8 -121 -14 -55 -7 -107 -16 -114 -20 -11 -7
-6 -21 22 -67 20 -32 79 -134 133 -228 94 -164 294 -492 315 -518 5 -6 49 -66
96 -132 228 -316 440 -514 710 -662 l92 -50 34 31 c19 17 81 73 139 125 166
150 210 193 205 198 -3 3 -44 9 -93 15 -370 40 -822 371 -1120 821 -84 127
-214 368 -248 460 -10 26 -20 46 -24 46 -3 -1 -15 -3 -26 -5z" id="node5" class="node"></path>
<path d="M1255 531 c-19 -16 -199 -82 -279 -101 -44 -11 -103 -20 -129 -20
-31 0 -46 -4 -42 -10 19 -31 447 -400 464 -400 24 0 108 66 148 116 40 51 123
175 123 184 0 4 -17 22 -37 41 -21 19 -78 71 -127 116 -89 82 -103 91 -121 74z" id="node6" class="node"></path>
</g>
<g transform="translate(0.000000,252.000000) scale(0.100000,-0.100000)" fill="#A1A1A1" stroke="none">

</g>
</svg>