<?xml version="1.0" encoding="UTF-8"?>
<svg version="1.1" xmlns="http://www.w3.org/2000/svg" width="600" height="594">
<path d="M0 0 C0.66 0 1.32 0 2 0 C2 0.66 2 1.32 2 2 C2.99 2.33 3.98 2.66 5 3 C7.1519437 6.22791555 7.20086443 7.28400809 7 11 C7.66 11 8.32 11 9 11 C9.4640625 12.4540625 9.4640625 12.4540625 9.9375 13.9375 C10.69523342 16.84065792 10.69523342 16.84065792 12 18 C12.04063832 19.66617115 12.042721 21.33388095 12 23 C12.66 23 13.32 23 14 23 C14 24.32 14 25.64 14 27 C14.66 27 15.32 27 16 27 C17.42258812 30.82320557 18.24042276 33.91281305 18 38 C18.66 38 19.32 38 20 38 C23 43.625 23 43.625 23 47 C23.66 47 24.32 47 25 47 C25.12375 47.639375 25.2475 48.27875 25.375 48.9375 C25.58125 49.618125 25.7875 50.29875 26 51 C26.66 51.33 27.32 51.66 28 52 C28 53.32 28 54.64 28 56 C28.66 56 29.32 56 30 56 C30 57.65 30 59.3 30 61 C30.66 61 31.32 61 32 61 C36.08575055 65.26339188 37.66959625 71.37716152 39 77 C39.66 77 40.32 77 41 77 C41 78.32 41 79.64 41 81 C41.66 81 42.32 81 43 81 C41.25 84.875 41.25 84.875 39 86 C39 85.34 39 84.68 39 84 C36.69 83.67 34.38 83.34 32 83 C32 82.34 32 81.68 32 81 C29.69 80.67 27.38 80.34 25 80 C25 79.34 25 78.68 25 78 C23.68 77.67 22.36 77.34 21 77 C21 76.34 21 75.68 21 75 C20.01 75 19.02 75 18 75 C18 79.29 18 83.58 18 88 C18.66 88 19.32 88 20 88 C20.85373239 95.02804699 21.12109311 101.92278069 21 109 C23.31 109 25.62 109 28 109 C28 109.66 28 110.32 28 111 C29.0725 110.95875 30.145 110.9175 31.25 110.875 C35 111 35 111 36.8828125 111.95703125 C39.48078343 113.2368435 41.75388797 113.46781505 44.625 113.8125 C50.69175245 114.7429835 55.84967255 116.63123236 61 120 C61.33 120.66 61.66 121.32 62 122 C64.30965848 123.05352843 66.6429774 124.05719096 69 125 C69 125.66 69 126.32 69 127 C69.86625 127.185625 69.86625 127.185625 70.75 127.375 C73.02335767 128.00648824 74.9253529 128.88858191 77 130 C77 130.66 77 131.32 77 132 C78.093125 132.144375 79.18625 132.28875 80.3125 132.4375 C84 133 84 133 87 134 C87 134.66 87 135.32 87 136 C88.32 136 89.64 136 91 136 C91 136.66 91 137.32 91 138 C91.66 138 92.32 138 93 138 C93 138.66 93 139.32 93 140 C93.721875 140.2475 94.44375 140.495 95.1875 140.75 C98.27606582 142.12269592 100.51011418 143.72353296 103 146 C103 146.66 103 147.32 103 148 C103.99 147.67 104.98 147.34 106 147 C106.33 146.34 106.66 145.68 107 145 C107.66 145 108.32 145 109 145 C109 144.34 109 143.68 109 143 C109.66 143 110.32 143 111 143 C111 142.34 111 141.68 111 141 C111.99 141 112.98 141 114 141 C114 140.01 114 139.02 114 138 C115.65 137.34 117.3 136.68 119 136 C119 135.34 119 134.68 119 134 C119.66 134 120.32 134 121 134 C121 133.34 121 132.68 121 132 C121.66 132 122.32 132 123 132 C123.33 129.69 123.66 127.38 124 125 C122.7625 124.319375 122.7625 124.319375 121.5 123.625 C120.2625 122.820625 120.2625 122.820625 119 122 C119 121.34 119 120.68 119 120 C118.01 119.67 117.02 119.34 116 119 C117.6875 116.5 117.6875 116.5 120 114 C122.75 113.6875 122.75 113.6875 125 114 C125 113.34 125 112.68 125 112 C128.465 111.505 128.465 111.505 132 111 C132 110.34 132 109.68 132 109 C132.969375 108.896875 133.93875 108.79375 134.9375 108.6875 C138.77660282 108.15018135 142.26152769 106.97779799 145.91015625 105.69921875 C148.24626775 104.91760387 150.56875406 104.39213644 153 104 C153 103.34 153 102.68 153 102 C153.78375 101.7525 154.5675 101.505 155.375 101.25 C158.28334585 100.24712212 161.0477799 99.13732334 163.875 97.9375 C168.3383997 96.13056478 172.19297598 95.25751914 177 95 C177.66 95.33 178.32 95.66 179 96 C178.85433594 96.69996094 178.70867187 97.39992188 178.55859375 98.12109375 C177.78354002 102.11560143 177.20144215 106.13660818 176.59765625 110.16015625 C176.04262048 112.79748306 175.25091601 114.64385699 174 117 C173.61709538 118.99110401 173.27395385 120.99100513 173 123 C172.34 123 171.68 123 171 123 C171.061875 124.175625 171.061875 124.175625 171.125 125.375 C171 128 171 128 169 130 C168.39688385 131.68761858 167.86149763 133.40014476 167.375 135.125 C166.98441406 136.49011719 166.98441406 136.49011719 166.5859375 137.8828125 C166.39257812 138.58148438 166.19921875 139.28015625 166 140 C165.34 140 164.68 140 164 140 C164.061875 141.36125 164.061875 141.36125 164.125 142.75 C163.99786368 146.05554442 163.44366256 147.15513554 162 150 C161.57848115 151.57158878 161.2031166 153.15629082 160.875 154.75 C160.70742188 155.54921875 160.53984375 156.3484375 160.3671875 157.171875 C160.24601562 157.77515625 160.12484375 158.3784375 160 159 C158.0625 158.6875 158.0625 158.6875 156 158 C155.67 157.01 155.34 156.02 155 155 C154.34 155 153.68 155 153 155 C152.67 153.68 152.34 152.36 152 151 C150.02 151.33 148.04 151.66 146 152 C146 152.66 146 153.32 146 154 C145 155 144 156 143 157 C141.82425289 159.09989652 141.82425289 159.09989652 141 161 C140.34 161 139.68 161 139 161 C139 161.66 139 162.32 139 163 C138.34 163 137.68 163 137 163 C137 163.99 137 164.98 137 166 C136.34 166 135.68 166 135 166 C134.67 167.32 134.34 168.64 134 170 C133.34 170 132.68 170 132 170 C132 172.31 132 174.62 132 177 C132.66 177 133.32 177 134 177 C134.33 178.65 134.66 180.3 135 182 C135.66 182 136.32 182 137 182 C137 182.66 137 183.32 137 184 C137.66 184 138.32 184 139 184 C139.33 184.99 139.66 185.98 140 187 C140.66 187.33 141.32 187.66 142 188 C143.0703125 190.21484375 143.0703125 190.21484375 144.125 192.9375 C144.65480469 194.28134766 144.65480469 194.28134766 145.1953125 195.65234375 C146 198 146 198 146 200 C146.66 200 147.32 200 148 200 C148.4125 200.99 148.825 201.98 149.25 203 C150.36565056 205.62785316 151.59378053 208.13688651 152.94140625 210.65234375 C155.19851031 215.14263968 156.4806383 219.70012796 157.6875 224.5625 C157.89955078 225.37396484 158.11160156 226.18542969 158.33007812 227.02148438 C160.02710029 233.65432494 161.14736098 240.06376099 161.0625 246.9375 C161.05347656 247.89527344 161.04445313 248.85304688 161.03515625 249.83984375 C161.01775391 250.90912109 161.01775391 250.90912109 161 252 C161.598125 252.28875 162.19625 252.5775 162.8125 252.875 C165 254 165 254 168 256 C170.3055563 256.29117799 170.3055563 256.29117799 172.8515625 256.23046875 C173.78484375 256.22853516 174.718125 256.22660156 175.6796875 256.22460938 C176.65164063 256.21236328 177.62359375 256.20011719 178.625 256.1875 C179.6046875 256.18685547 180.584375 256.18621094 181.59375 256.18554688 C186.13588359 256.57792545 186.13588359 256.57792545 190 255 C192.67058851 254.85884839 195.32432238 254.95752893 198 255 C198 253.35 198 251.7 198 250 C197.34 250 196.68 250 196 250 C195.34 246.7 194.68 243.4 194 240 C193.01 240 192.02 240 191 240 C191 238.68 191 237.36 191 236 C190.34 236 189.68 236 189 236 C189 235.34 189 234.68 189 234 C189.66 234 190.32 234 191 234 C191.103125 233.360625 191.20625 232.72125 191.3125 232.0625 C191.539375 231.381875 191.76625 230.70125 192 230 C196.17587745 228.60804085 198.13474776 230.17676781 202 232 C202 232.66 202 233.32 202 234 C202.99 234 203.98 234 205 234 C205 234.66 205 235.32 205 236 C205.70511719 236.10183594 206.41023438 236.20367187 207.13671875 236.30859375 C210.41059645 237.09914812 212.88584467 238.40523734 215.8125 240.0625 C217.27623047 240.88427734 217.27623047 240.88427734 218.76953125 241.72265625 C219.50558594 242.14417969 220.24164062 242.56570313 221 243 C221 243.66 221 244.32 221 245 C222.11375 245.185625 222.11375 245.185625 223.25 245.375 C225.80141485 245.95486701 227.7267573 246.73708739 230 248 C230 248.66 230 249.32 230 250 C232.31 250.66 234.62 251.32 237 252 C237 252.66 237 253.32 237 254 C238.65 254.33 240.3 254.66 242 255 C242 255.66 242 256.32 242 257 C242.928125 257.04125 243.85625 257.0825 244.8125 257.125 C250.47322892 257.89901804 255.13603304 261.19185981 260 264 C261.32750178 264.67820443 262.65859896 265.34971893 264 266 C264 266.66 264 267.32 264 268 C265.32 268 266.64 268 268 268 C268 268.66 268 269.32 268 270 C268.99 270.33 269.98 270.66 271 271 C271 271.66 271 272.32 271 273 C271.66 273 272.32 273 273 273 C273 273.66 273 274.32 273 275 C271.02 275.66 269.04 276.32 267 277 C267 277.66 267 278.32 267 279 C264.98009481 281.42388623 262.94343468 282.87456909 260 284 C257.25 284.125 257.25 284.125 255 284 C255 284.66 255 285.32 255 286 C253.5459375 286.4640625 253.5459375 286.4640625 252.0625 286.9375 C249.15934208 287.69523342 249.15934208 287.69523342 248 289 C246.00041636 289.04080783 243.99954746 289.04254356 242 289 C242 289.66 242 290.32 242 291 C240.02 291 238.04 291 236 291 C236 291.66 236 292.32 236 293 C232.49223216 294.60355101 229.85645121 295.22036864 226 295 C225.67 295.99 225.34 296.98 225 298 C223.68 298 222.36 298 221 298 C221 298.66 221 299.32 221 300 C220.01 300 219.02 300 218 300 C218 300.66 218 301.32 218 302 C216.68 302 215.36 302 214 302 C213.67 302.99 213.34 303.98 213 305 C211.35 305 209.7 305 208 305 C208 305.66 208 306.32 208 307 C206.35 307 204.7 307 203 307 C203 307.66 203 308.32 203 309 C201.35 309 199.7 309 198 309 C198 309.66 198 310.32 198 311 C196.35 311.33 194.7 311.66 193 312 C192.67 311.34 192.34 310.68 192 310 C192.66 310 193.32 310 194 310 C194.06058594 309.08476562 194.12117188 308.16953125 194.18359375 307.2265625 C194.30927734 305.44378906 194.30927734 305.44378906 194.4375 303.625 C194.51871094 302.44164062 194.59992188 301.25828125 194.68359375 300.0390625 C195 297 195 297 196 295 C196.66 295 197.32 295 198 295 C198 293.68 198 292.36 198 291 C194.12416586 291.08125156 190.2498621 291.19406419 186.375 291.3125 C185.28058594 291.33505859 184.18617188 291.35761719 183.05859375 291.38085938 C177.27675848 291.57358722 173.04217095 291.87586418 168 295 C167.34 295 166.68 295 166 295 C166 295.66 166 296.32 166 297 C165.34 297 164.68 297 164 297 C163.87625 297.804375 163.7525 298.60875 163.625 299.4375 C162.54811507 305.57574411 161.13964972 311.56761173 159.4375 317.5625 C158.53411869 320.801122 157.79956751 323.90734102 157.4375 327.25 C156.99143806 331.07338806 156.14382097 334.33977289 155 338 C154.34 338 153.68 338 153 338 C152.87625 338.7425 152.7525 339.485 152.625 340.25 C152.04513299 342.80141485 151.26291261 344.7267573 150 347 C149.34 347 148.68 347 148 347 C147.690625 347.78375 147.38125 348.5675 147.0625 349.375 C146 352 146 352 145 354 C144.34 354 143.68 354 143 354 C142.896875 354.721875 142.79375 355.44375 142.6875 356.1875 C141.93206053 359.27793421 140.84468685 361.41743841 139 364 C138.34 364 137.68 364 137 364 C136.34 365.98 135.68 367.96 135 370 C134.01 370 133.02 370 132 370 C132 370.99 132 371.98 132 373 C131.34 373 130.68 373 130 373 C130 373.66 130 374.32 130 375 C129.34 375 128.68 375 128 375 C128.66 376.11375 129.32 377.2275 130 378.375 C132 381.75 132 381.75 132 384 C132.99 384 133.98 384 135 384 C136.4606285 386.64738916 137 387.89448334 137 391 C137.66 391 138.32 391 139 391 C139 391.66 139 392.32 139 393 C139.99 393.33 140.98 393.66 142 394 C142 394.66 142 395.32 142 396 C142.99 396 143.98 396 145 396 C145.33 395.01 145.66 394.02 146 393 C146.66 393 147.32 393 148 393 C148 392.34 148 391.68 148 391 C148.66 391 149.32 391 150 391 C150.268125 390.2575 150.53625 389.515 150.8125 388.75 C151.97059859 386.06808747 152.97489986 384.10298861 155 382 C156.32 382 157.64 382 159 382 C161.13693631 392.27548098 162.95529001 402.55290014 164 413 C164.66 413 165.32 413 166 413 C166.19335938 413.81984375 166.38671875 414.6396875 166.5859375 415.484375 C166.97652344 417.10085938 166.97652344 417.10085938 167.375 418.75 C167.63023437 419.81734375 167.88546875 420.8846875 168.1484375 421.984375 C168.87872512 424.57053116 169.79206498 426.62578289 171 429 C171.125 431.75 171.125 431.75 171 434 C171.66 434 172.32 434 173 434 C177.59225513 447.6332574 177.59225513 447.6332574 177 454 C175.58249437 453.88490339 174.16598831 453.75746342 172.75 453.625 C171.96109375 453.55539062 171.1721875 453.48578125 170.359375 453.4140625 C167.89707981 452.98193785 166.19960284 452.15389001 164 451 C162.00889599 450.61709538 160.00899487 450.27395385 158 450 C158 449.34 158 448.68 158 448 C157.195625 448.0825 156.39125 448.165 155.5625 448.25 C151.48420069 447.96380356 148.77921817 446.74982784 145.1484375 444.97265625 C143.10337641 444.04680132 141.18936866 443.47056566 139 443 C139 442.34 139 441.68 139 441 C137.865625 440.87625 136.73125 440.7525 135.5625 440.625 C131.68178981 440.14420405 127.92754892 439.36055729 124.12109375 438.4765625 C121.43068617 437.87208787 118.72481224 437.41920188 116 437 C116 436.34 116 435.68 116 435 C115.34 435 114.68 435 114 435 C113.6875 431.6875 113.6875 431.6875 114 428 C116.39740918 426.04421883 117.87586608 425 121 425 C121.66 423.02 122.32 421.04 123 419 C122.34 419 121.68 419 121 419 C121 418.01 121 417.02 121 416 C120.34 416 119.68 416 119 416 C117.375 414.625 117.375 414.625 116 413 C116 412.34 116 411.68 116 411 C115.34 411 114.68 411 114 411 C114 410.34 114 409.68 114 409 C113.34 409 112.68 409 112 409 C112 408.34 112 407.68 112 407 C111.01 407 110.02 407 109 407 C109 406.01 109 405.02 109 404 C108.34 404 107.68 404 107 404 C107 403.34 107 402.68 107 402 C106.34 402 105.68 402 105 402 C105 402.66 105 403.32 105 404 C102.4385343 406.29648649 101.52032428 407 98 407 C98 407.66 98 408.32 98 409 C93.61538462 412 93.61538462 412 91 412 C91 412.66 91 413.32 91 414 C89.68 414 88.36 414 87 414 C87 414.66 87 415.32 87 416 C86.21753906 416.42152344 85.43507813 416.84304688 84.62890625 417.27734375 C83.11103516 418.09912109 83.11103516 418.09912109 81.5625 418.9375 C80.04849609 419.75541016 80.04849609 419.75541016 78.50390625 420.58984375 C76.13329507 421.77699468 76.13329507 421.77699468 75 423 C73.33382885 423.04063832 71.66611905 423.042721 70 423 C70 423.66 70 424.32 70 425 C68.68 425 67.36 425 66 425 C66 425.66 66 426.32 66 427 C64.58603098 427.50757862 63.16868271 428.00574925 61.75 428.5 C60.96109375 428.7784375 60.1721875 429.056875 59.359375 429.34375 C57 430 57 430 53 430 C53 430.66 53 431.32 53 432 C51.4188708 432.50692692 49.83498617 433.00526443 48.25 433.5 C46.92742187 433.91765625 46.92742187 433.91765625 45.578125 434.34375 C43 435 43 435 39 435 C39 435.66 39 436.32 39 437 C33.72 437.33 28.44 437.66 23 438 C21.16156727 442.59608182 20.71277339 445.03340664 20.5859375 449.83203125 C20.54726563 451.12431641 20.50859375 452.41660156 20.46875 453.74804688 C20.43729986 455.10285995 20.40605239 456.45767775 20.375 457.8125 C20.3367825 459.18687272 20.2977286 460.56122244 20.2578125 461.93554688 C20.16364596 465.29022989 20.078018 468.64490893 20 472 C22.64 471.67 25.28 471.34 28 471 C28 470.34 28 469.68 28 469 C29.65 468.67 31.3 468.34 33 468 C33 467.34 33 466.68 33 466 C34.32 466 35.64 466 37 466 C37 465.34 37 464.68 37 464 C38.98 463.34 40.96 462.68 43 462 C43.22036864 465.85645121 42.60355101 468.49223216 41 472 C40.34 472 39.68 472 39 472 C38.9175 472.94875 38.835 473.8975 38.75 474.875 C37.64958221 482.53142801 33.97676874 489.46673708 30 496 C29.34 496 28.68 496 28 496 C27.67 497.32 27.34 498.64 27 500 C26.34 500 25.68 500 25 500 C25 500.99 25 501.98 25 503 C24.34 503 23.68 503 23 503 C22.87625 503.763125 22.7525 504.52625 22.625 505.3125 C22 508 22 508 20 511 C19.34 511 18.68 511 18 511 C17.855625 512.27875 17.71125 513.5575 17.5625 514.875 C17.29357254 517.25692894 17.07773654 518.84452691 16 521 C15.34 521 14.68 521 14 521 C14 522.65 14 524.3 14 526 C13.34 526 12.68 526 12 526 C12 527.98 12 529.96 12 532 C11.34 532 10.68 532 10 532 C9.01 535.96 8.02 539.92 7 544 C6.34 544 5.68 544 5 544 C4.67 545.32 4.34 546.64 4 548 C3.34 548 2.68 548 2 548 C2 549.32 2 550.64 2 552 C0.02 551.67 -1.96 551.34 -4 551 C-4 549.02 -4 547.04 -4 545 C-4.99 544.67 -5.98 544.34 -7 544 C-7 543.01 -7 542.02 -7 541 C-7.66 541 -8.32 541 -9 541 C-9 539.02 -9 537.04 -9 535 C-9.66 535 -10.32 535 -11 535 C-12.4216319 531.6828589 -13.39009109 528.55780196 -14 525 C-14.66 525 -15.32 525 -16 525 C-16.28875 524.113125 -16.5775 523.22625 -16.875 522.3125 C-17.9156135 519.09221669 -17.9156135 519.09221669 -19.125 516.4375 C-20.07117939 513.80171456 -20.15876134 511.77832339 -20 509 C-20.99 508.67 -21.98 508.34 -23 508 C-23 507.01 -23 506.02 -23 505 C-23.66 505 -24.32 505 -25 505 C-25 503.68 -25 502.36 -25 501 C-25.66 501 -26.32 501 -27 501 C-27 500.01 -27 499.02 -27 498 C-27.66 498 -28.32 498 -29 498 C-32 491.375 -32 491.375 -32 488 C-32.66 488 -33.32 488 -34 488 C-34.33 486.02 -34.66 484.04 -35 482 C-35.66 482 -36.32 482 -37 482 C-37.12117187 481.37351562 -37.24234375 480.74703125 -37.3671875 480.1015625 C-37.53476562 479.28429687 -37.70234375 478.46703125 -37.875 477.625 C-38.03742188 476.81289063 -38.19984375 476.00078125 -38.3671875 475.1640625 C-38.86658932 472.81326077 -38.86658932 472.81326077 -41 471 C-41.125 468.375 -41.125 468.375 -41 466 C-41.66 466 -42.32 466 -43 466 C-42.67 464.35 -42.34 462.7 -42 461 C-37.75776898 460.6363802 -35.41831915 461.4606772 -32 464 C-32 464.66 -32 465.32 -32 466 C-31.01 466 -30.02 466 -29 466 C-29 466.66 -29 467.32 -29 468 C-28.34 468 -27.68 468 -27 468 C-27 468.99 -27 469.98 -27 471 C-25.68 471.33 -24.36 471.66 -23 472 C-22.78322593 466.7678105 -22.58631263 461.53539813 -22.40795898 456.30175781 C-22.34444007 454.52062902 -22.2754498 452.73968674 -22.20092773 450.95898438 C-22.09488759 448.40263405 -22.00839696 445.84626349 -21.92578125 443.2890625 C-21.8697448 442.09055161 -21.8697448 442.09055161 -21.81257629 440.86782837 C-21.70904754 438.39172685 -21.70904754 438.39172685 -22 435 C-25.50919439 432.66053707 -27.84897622 432.55346984 -32 432 C-34.34326294 431.36912152 -36.6756398 430.69730806 -39 430 C-40.85329268 429.49677016 -42.70752751 428.9970021 -44.5625 428.5 C-48.42201163 427.45272205 -52.22507362 426.32632548 -56 425 C-56 424.34 -56 423.68 -56 423 C-56.78375 422.9175 -57.5675 422.835 -58.375 422.75 C-63.177645 421.75634931 -67.49809489 419.91286482 -72 418 C-72 417.34 -72 416.68 -72 416 C-72.99 416 -73.98 416 -75 416 C-75 415.34 -75 414.68 -75 414 C-75.7425 413.855625 -76.485 413.71125 -77.25 413.5625 C-79.52027739 413.09812508 -81.75759479 412.58136431 -84 412 C-84 411.01 -84 410.02 -84 409 C-84.99 409 -85.98 409 -87 409 C-87 408.34 -87 407.68 -87 407 C-87.99 407 -88.98 407 -90 407 C-90 406.34 -90 405.68 -90 405 C-91.65 404.67 -93.3 404.34 -95 404 C-95 403.34 -95 402.68 -95 402 C-102.93978209 404.02197109 -102.93978209 404.02197109 -110 408 C-110.33 408.99 -110.66 409.98 -111 411 C-113.5625 412.1875 -113.5625 412.1875 -116 413 C-116 413.99 -116 414.98 -116 416 C-120.34285714 420 -120.34285714 420 -123 420 C-123 420.66 -123 421.32 -123 422 C-123.66 422.33 -124.32 422.66 -125 423 C-125 424.32 -125 425.64 -125 427 C-121.69058623 429.20627585 -120.425593 429.23871721 -116.5625 429.375 C-111.33704894 429.74133453 -111.33704894 429.74133453 -108.3125 432.0625 C-107.879375 432.701875 -107.44625 433.34125 -107 434 C-107.66 434 -108.32 434 -109 434 C-109 434.99 -109 435.98 -109 437 C-117.33784044 441.63213358 -124.76367471 442.92631978 -134.25 443.4375 C-146.39679178 443.7028246 -146.39679178 443.7028246 -157 448 C-158.66617115 448.04063832 -160.33388095 448.042721 -162 448 C-162 448.66 -162 449.32 -162 450 C-173.52164009 454.59225513 -173.52164009 454.59225513 -179 454 C-178.51872613 448.41469011 -177.5436119 443.40264163 -176 438 C-175.567716 435.00763406 -175.25952949 432.01190807 -175 429 C-174.34 429 -173.68 429 -173 429 C-173.02320313 428.39671875 -173.04640625 427.7934375 -173.0703125 427.171875 C-173.08835937 426.37265625 -173.10640625 425.5734375 -173.125 424.75 C-173.14820313 423.96109375 -173.17140625 423.1721875 -173.1953125 422.359375 C-173 420 -173 420 -172.08984375 418.2109375 C-170.47422639 414.93337683 -170.04135397 411.4470039 -169.4375 407.875 C-168.11993243 400.23986486 -168.11993243 400.23986486 -167 398 C-166.65941145 396.08812479 -166.35150781 394.17034941 -166.0625 392.25 C-165.38179092 387.99172969 -164.56978113 384.03658004 -163 380 C-162.01 380 -161.02 380 -160 380 C-157.47905628 383.42848346 -156.24256294 386.96167044 -155 391 C-154.4615332 392.62606312 -153.91972022 394.25102104 -153.375 395.875 C-152.91666667 397.25 -152.45833333 398.625 -152 400 C-151.34 400 -150.68 400 -150 400 C-150 399.34 -150 398.68 -150 398 C-149.01 398 -148.02 398 -147 398 C-147 397.34 -147 396.68 -147 396 C-146.34 396 -145.68 396 -145 396 C-144.67 394.35 -144.34 392.7 -144 391 C-143.01 391 -142.02 391 -141 391 C-141 390.34 -141 389.68 -141 389 C-139.68 388.67 -138.36 388.34 -137 388 C-137 387.34 -137 386.68 -137 386 C-136.01 386 -135.02 386 -134 386 C-134 385.34 -134 384.68 -134 384 C-133.34 384 -132.68 384 -132 384 C-131.7501236 381.4380143 -131.52458884 378.87765869 -131.3125 376.3125 C-131.23966797 375.59126953 -131.16683594 374.87003906 -131.09179688 374.12695312 C-130.71954406 369.33146092 -131.32502485 366.92650594 -134 363 C-134 361.68 -134 360.36 -134 359 C-134.99 359 -135.98 359 -137 359 C-138.4606285 356.35261084 -139 355.10551666 -139 352 C-139.66 352 -140.32 352 -141 352 C-141.12375 351.360625 -141.2475 350.72125 -141.375 350.0625 C-141.58125 349.381875 -141.7875 348.70125 -142 348 C-142.66 347.67 -143.32 347.34 -144 347 C-146.09902827 342.2294812 -147.3386196 337.15876713 -148 332 C-148.66 332 -149.32 332 -150 332 C-150 330.35 -150 328.7 -150 327 C-150.66 327 -151.32 327 -152 327 C-152.27714844 325.78441406 -152.55429688 324.56882812 -152.83984375 323.31640625 C-153.20553898 321.73172693 -153.57143475 320.14709388 -153.9375 318.5625 C-154.21110352 317.35883789 -154.21110352 317.35883789 -154.49023438 316.13085938 C-155.09661008 312.25047271 -155.09661008 312.25047271 -157 309 C-157.12375 307.7625 -157.2475 306.525 -157.375 305.25 C-157.81063049 301.50357782 -158.65447841 299.04049095 -161 296 C-162.31963709 294.98199424 -163.65009646 293.97751635 -165 293 C-165 292.34 -165 291.68 -165 291 C-175.23 291 -185.46 291 -196 291 C-194.515 294.96 -194.515 294.96 -193 299 C-193 299.99 -193 300.98 -193 302 C-192.34 302 -191.68 302 -191 302 C-191 303.65 -191 305.3 -191 307 C-190.34 307 -189.68 307 -189 307 C-188.505 311.95 -188.505 311.95 -188 317 C-189.65 317.33 -191.3 317.66 -193 318 C-193 317.34 -193 316.68 -193 316 C-193.99 316 -194.98 316 -196 316 C-196.99 314.515 -196.99 314.515 -198 313 C-200.05925139 312.27617533 -200.05925139 312.27617533 -202 312 C-202 311.34 -202 310.68 -202 310 C-203.65 309.67 -205.3 309.34 -207 309 C-207 308.34 -207 307.68 -207 307 C-207.721875 307.06058594 -208.44375 307.12117188 -209.1875 307.18359375 C-212.58753341 306.96164712 -214.18029922 305.93495755 -217 304.0625 C-220.37411078 301.83242366 -222.97688365 300.56754677 -227 300 C-227 299.34 -227 298.68 -227 298 C-227.680625 297.731875 -228.36125 297.46375 -229.0625 297.1875 C-232.39710809 295.83946694 -235.69743237 294.42463702 -239 293 C-239 292.34 -239 291.68 -239 291 C-240.32 291 -241.64 291 -243 291 C-243 290.34 -243 289.68 -243 289 C-244.65 288.67 -246.3 288.34 -248 288 C-248 287.34 -248 286.68 -248 286 C-248.99 286 -249.98 286 -251 286 C-251 285.34 -251 284.68 -251 284 C-252.98 284 -254.96 284 -257 284 C-257 283.34 -257 282.68 -257 282 C-257.804375 281.855625 -258.60875 281.71125 -259.4375 281.5625 C-262 281 -262 281 -263 280 C-264.51469448 279.76807135 -266.03754562 279.58784762 -267.5625 279.4375 C-268.38878906 279.35371094 -269.21507812 279.26992188 -270.06640625 279.18359375 C-270.70449219 279.12300781 -271.34257812 279.06242187 -272 279 C-272 278.34 -272 277.68 -272 277 C-272.99 277 -273.98 277 -275 277 C-275 276.34 -275 275.68 -275 275 C-274.34 275 -273.68 275 -273 275 C-273 274.34 -273 273.68 -273 273 C-272.01 273 -271.02 273 -270 273 C-270 272.34 -270 271.68 -270 271 C-268.68 270.67 -267.36 270.34 -266 270 C-266 269.34 -266 268.68 -266 268 C-264.68 268 -263.36 268 -262 268 C-262 267.34 -262 266.68 -262 266 C-259.98250297 263.57900356 -257.91201404 262.18300571 -255 261 C-254.01 261 -253.02 261 -252 261 C-251.67 260.01 -251.34 259.02 -251 258 C-249.02 257.67 -247.04 257.34 -245 257 C-245 256.34 -245 255.68 -245 255 C-241.27034861 252.96564469 -239.33094958 252 -235 252 C-235 251.34 -235 250.68 -235 250 C-233.25447527 249.15733289 -231.5033792 248.32619962 -229.75 247.5 C-228.77546875 247.0359375 -227.8009375 246.571875 -226.796875 246.09375 C-224 245 -224 245 -220 245 C-220 244.34 -220 243.68 -220 243 C-218.68 243 -217.36 243 -216 243 C-216 242.34 -216 241.68 -216 241 C-212.62902617 239.50178941 -210.79557881 239 -207 239 C-207 238.34 -207 237.68 -207 237 C-205.35 236.67 -203.7 236.34 -202 236 C-202 235.34 -202 234.68 -202 234 C-200.02 234 -198.04 234 -196 234 C-196 233.34 -196 232.68 -196 232 C-193.35261084 230.5393715 -192.10551666 230 -189 230 C-189 231.98 -189 233.96 -189 236 C-189.66 236 -190.32 236 -191 236 C-191 237.32 -191 238.64 -191 240 C-192.375 241.75 -192.375 241.75 -194 243 C-194.66 243 -195.32 243 -196 243 C-196.33 245.31 -196.66 247.62 -197 250 C-186.44 250 -175.88 250 -165 250 C-165 249.34 -165 248.68 -165 248 C-164.34 248 -163.68 248 -163 248 C-162.731875 246.845 -162.46375 245.69 -162.1875 244.5 C-161.27499865 240.81740527 -160.04248738 237.36163434 -158.6640625 233.83203125 C-157.85138312 231.58999226 -157.36776736 229.35371111 -157 227 C-156.34 227 -155.68 227 -155 227 C-154.814375 225.6696875 -154.814375 225.6696875 -154.625 224.3125 C-154.05587264 221.29612498 -153.23385564 218.79673946 -152 216 C-151.34 216 -150.68 216 -150 216 C-150 214.35 -150 212.7 -150 211 C-149.34 211 -148.68 211 -148 211 C-147.505 208.03 -147.505 208.03 -147 205 C-146.34 205 -145.68 205 -145 205 C-144.34 201.7 -143.68 198.4 -143 195 C-142.34 195 -141.68 195 -141 195 C-141 193.68 -141 192.36 -141 191 C-140.34 191 -139.68 191 -139 191 C-139 189.68 -139 188.36 -139 187 C-138.34 187 -137.68 187 -137 187 C-136.67 185.35 -136.34 183.7 -136 182 C-135.34 182 -134.68 182 -134 182 C-133.86722656 181.39671875 -133.73445312 180.7934375 -133.59765625 180.171875 C-133.42105469 179.37265625 -133.24445313 178.5734375 -133.0625 177.75 C-132.88847656 176.96109375 -132.71445313 176.1721875 -132.53515625 175.359375 C-132.19466131 173.85821483 -131.81089915 172.36574869 -131.37109375 170.890625 C-130.79694178 168.78746007 -130.79694178 168.78746007 -132 166 C-133.6476038 165.28752268 -135.31763529 164.62599617 -137 164 C-139.3125 162.5 -139.3125 162.5 -141 161 C-141 160.34 -141 159.68 -141 159 C-141.99 159 -142.98 159 -144 159 C-145.6875 157.625 -145.6875 157.625 -147 156 C-147 155.34 -147 154.68 -147 154 C-148.65 154 -150.3 154 -152 154 C-152.17015625 154.63808594 -152.3403125 155.27617187 -152.515625 155.93359375 C-152.87914062 157.17302734 -152.87914062 157.17302734 -153.25 158.4375 C-153.48203125 159.26121094 -153.7140625 160.08492187 -153.953125 160.93359375 C-155 163 -155 163 -157.109375 163.78515625 C-158.04523438 163.89150391 -158.04523438 163.89150391 -159 164 C-159 163.01 -159 162.02 -159 161 C-159.66 161 -160.32 161 -161 161 C-162.37533541 154.84437258 -163.28403183 148.84276132 -163.65625 142.54296875 C-164.03090077 139.77140454 -164.93141164 137.57316077 -166 135 C-166.125 132.1875 -166.125 132.1875 -166 130 C-166.66 130 -167.32 130 -168 130 C-168.17015625 129.29875 -168.3403125 128.5975 -168.515625 127.875 C-169.89134821 122.48918997 -171.45251853 117.67484205 -174.08984375 112.78125 C-175.36388736 110.28784276 -176.13476614 107.657504 -177 105 C-177.66 104.01 -178.32 103.02 -179 102 C-179.1953125 99.73828125 -179.1953125 99.73828125 -179.125 97.3125 C-179.10695313 96.50425781 -179.08890625 95.69601563 -179.0703125 94.86328125 C-179.04710937 94.24839844 -179.02390625 93.63351563 -179 93 C-177.02 93 -175.04 93 -173 93 C-173 93.66 -173 94.32 -173 95 C-171.35 95.33 -169.7 95.66 -168 96 C-168 96.66 -168 97.32 -168 98 C-166.35 98 -164.7 98 -163 98 C-163 98.66 -163 99.32 -163 100 C-162.01 100 -161.02 100 -160 100 C-160 100.66 -160 101.32 -160 102 C-158.35 102 -156.7 102 -155 102 C-155 102.66 -155 103.32 -155 104 C-153.96875 104.103125 -152.9375 104.20625 -151.875 104.3125 C-148 105 -148 105 -145.0625 106.5 C-141.2552156 108.36479236 -138.20617478 108.63739873 -134 109 C-134 109.66 -134 110.32 -134 111 C-133.0925 110.95875 -132.185 110.9175 -131.25 110.875 C-128 111 -128 111 -126.18359375 111.9453125 C-122.53079709 113.70963289 -118.57033146 113.89736744 -114.58203125 114.4375 C-113.72996094 114.623125 -112.87789062 114.80875 -112 115 C-111.67 115.66 -111.34 116.32 -111 117 C-113.475 117.495 -113.475 117.495 -116 118 C-116 118.66 -116 119.32 -116 120 C-116.66 120 -117.32 120 -118 120 C-118 120.66 -118 121.32 -118 122 C-120.475 122.495 -120.475 122.495 -123 123 C-123 123.66 -123 124.32 -123 125 C-123.99 125.495 -123.99 125.495 -125 126 C-125 126.99 -125 127.98 -125 129 C-124.443125 129.268125 -123.88625 129.53625 -123.3125 129.8125 C-120.78774666 131.10899496 -118.36285516 132.42476323 -116 134 C-116 134.66 -116 135.32 -116 136 C-115.34 136 -114.68 136 -114 136 C-112 138 -112 138 -111 140 C-110.01 140.33 -109.02 140.66 -108 141 C-108 141.66 -108 142.32 -108 143 C-101.82948776 142.74711015 -97.0582707 141.98825483 -91.69140625 138.83984375 C-90 138 -90 138 -87 138 C-87 137.34 -87 136.68 -87 136 C-86.10796875 135.68546875 -85.2159375 135.3709375 -84.296875 135.046875 C-83.12640625 134.61890625 -81.9559375 134.1909375 -80.75 133.75 C-79.00976562 133.12351563 -79.00976562 133.12351563 -77.234375 132.484375 C-74.02916983 131.01338712 -72.36923347 129.54312217 -70 127 C-69.34 127 -68.68 127 -68 127 C-68 126.34 -68 125.68 -68 125 C-66.75264433 124.3490741 -65.50198168 123.70448331 -64.25 123.0625 C-63.55390625 122.70285156 -62.8578125 122.34320313 -62.140625 121.97265625 C-60.09775567 121.04441818 -58.18884624 120.46833422 -56 120 C-56 119.34 -56 118.68 -56 118 C-50.98796868 116.1900998 -45.89069001 114.98098989 -40.70703125 113.78125 C-37.81335673 113.09385223 -37.81335673 113.09385223 -35 111 C-33.68 111 -32.36 111 -31 111 C-31 110.34 -31 109.68 -31 109 C-27.37 109 -23.74 109 -20 109 C-18.73306237 99.33960055 -18.91015908 89.72278418 -19 80 C-21.92825903 80 -24.55806822 80.12879445 -27.44140625 80.47265625 C-28.27220703 80.56740234 -29.10300781 80.66214844 -29.95898438 80.75976562 C-31.69896709 80.9620892 -33.43855506 81.16783597 -35.17773438 81.37695312 C-36.00724609 81.47041016 -36.83675781 81.56386719 -37.69140625 81.66015625 C-38.44623291 81.74918213 -39.20105957 81.83820801 -39.97875977 81.92993164 C-42 82 -42 82 -45 81 C-45.4205116 76.5118474 -44.27565489 74.35394439 -41.75 70.6875 C-38.77758175 66.2379165 -36.2810664 61.83586077 -34 57 C-33.34 57 -32.68 57 -32 57 C-32 56.01 -32 55.02 -32 54 C-31.34 54 -30.68 54 -30 54 C-29.690625 53.21625 -29.38125 52.4325 -29.0625 51.625 C-28 49 -28 49 -27 47 C-26.34 47 -25.68 47 -25 47 C-24.814375 46.13375 -24.814375 46.13375 -24.625 45.25 C-23.99351176 42.97664233 -23.11141809 41.0746471 -22 39 C-21.34 39 -20.68 39 -20 39 C-19.855625 37.88625 -19.71125 36.7725 -19.5625 35.625 C-19 32 -19 32 -18 30 C-17.34 30 -16.68 30 -16 30 C-16 28.68 -16 27.36 -16 26 C-15.34 26 -14.68 26 -14 26 C-14 25.01 -14 24.02 -14 23 C-13.34 22.67 -12.68 22.34 -12 22 C-11.34786708 19.97536745 -11.34786708 19.97536745 -11 18 C-10.34 18 -9.68 18 -9 18 C-9 17.01 -9 16.02 -9 15 C-8.34 15 -7.68 15 -7 15 C-6.67 13.68 -6.34 12.36 -6 11 C-5.34 11 -4.68 11 -4 11 C-4 10.01 -4 9.02 -4 8 C-3.34 8 -2.68 8 -2 8 C-2 6.02 -2 4.04 -2 2 C-1.34 2 -0.68 2 0 2 C0 1.34 0 0.68 0 0 Z M-17 144 C-19.01433029 144.35199017 -21.03709775 144.65612954 -23.0625 144.9375 C-28.15590357 145.68356021 -33.03912608 146.63819147 -38 148 C-38 148.66 -38 149.32 -38 150 C-39.2375 150.144375 -40.475 150.28875 -41.75 150.4375 C-44.56504499 150.78688502 -47.2701497 151.20379366 -50 152 C-50 152.66 -50 153.32 -50 154 C-51.65 154 -53.3 154 -55 154 C-55 154.66 -55 155.32 -55 156 C-56.32 156.33 -57.64 156.66 -59 157 C-59 157.66 -59 158.32 -59 159 C-60.32 159 -61.64 159 -63 159 C-63 159.66 -63 160.32 -63 161 C-63.763125 161.12375 -64.52625 161.2475 -65.3125 161.375 C-68.20267136 161.88102792 -68.20267136 161.88102792 -71 164 C-71 164.66 -71 165.32 -71 166 C-72.98 166.66 -74.96 167.32 -77 168 C-77 168.66 -77 169.32 -77 170 C-77.66 170 -78.32 170 -79 170 C-79 170.66 -79 171.32 -79 172 C-79.99 172 -80.98 172 -82 172 C-82 172.66 -82 173.32 -82 174 C-82.99 174.33 -83.98 174.66 -85 175 C-85 175.66 -85 176.32 -85 177 C-85.99 177 -86.98 177 -88 177 C-89.46355751 178.46302255 -89.46355751 178.46302255 -90.6875 180.375 C-91.12449219 181.00148437 -91.56148437 181.62796875 -92.01171875 182.2734375 C-93.16559106 183.95772657 -93.16559106 183.95772657 -93 186 C-93.66 186 -94.32 186 -95 186 C-95 186.66 -95 187.32 -95 188 C-95.99 188 -96.98 188 -98 188 C-98 188.99 -98 189.98 -98 191 C-98.66 191 -99.32 191 -100 191 C-100 191.66 -100 192.32 -100 193 C-100.66 193 -101.32 193 -102 193 C-104.31592022 196.22114157 -104.31592022 196.22114157 -105 200 C-105.66 200 -106.32 200 -107 200 C-107.66 202.31 -108.32 204.62 -109 207 C-109.66 207 -110.32 207 -111 207 C-111 208.32 -111 209.64 -111 211 C-111.66 211 -112.32 211 -113 211 C-115.43160605 214.36683915 -116 215.73350364 -116 220 C-116.66 220 -117.32 220 -118 220 C-120.43425238 224.96993194 -121.34615998 228.34605369 -121 234 C-121.66 234 -122.32 234 -123 234 C-123 238.62 -123 243.24 -123 248 C-123.66 248 -124.32 248 -125 248 C-125.97597579 260.07770039 -126.11132303 272.14013496 -126.125 284.25 C-126.12749756 285.0296109 -126.12999512 285.8092218 -126.13256836 286.61245728 C-126.13850151 288.87189078 -126.13694826 291.13118971 -126.1328125 293.390625 C-126.13479645 294.06822372 -126.1367804 294.74582245 -126.13882446 295.44395447 C-126.11968682 299.39662028 -125.75554259 303.12099783 -125 307 C-124.34 307 -123.68 307 -123 307 C-123 309.64 -123 312.28 -123 315 C-122.34 315 -121.68 315 -121 315 C-121.061875 315.845625 -121.12375 316.69125 -121.1875 317.5625 C-120.95984372 321.73619843 -119.79792186 324.25432947 -118 328 C-117.34 328 -116.68 328 -116 328 C-116 329.65 -116 331.3 -116 333 C-115.34 333 -114.68 333 -114 333 C-113.87625 333.5775 -113.7525 334.155 -113.625 334.75 C-112.99351176 337.02335767 -112.11141809 338.9253529 -111 341 C-110.34 341 -109.68 341 -109 341 C-108.9175 341.70125 -108.835 342.4025 -108.75 343.125 C-107.81990995 346.6903452 -106.23313631 349.09015572 -104 352 C-103.34 352 -102.68 352 -102 352 C-102 352.66 -102 353.32 -102 354 C-101.34 354 -100.68 354 -100 354 C-100 354.99 -100 355.98 -100 357 C-99.34 357 -98.68 357 -98 357 C-98 357.66 -98 358.32 -98 359 C-97.01 359 -96.02 359 -95 359 C-95 359.99 -95 360.98 -95 362 C-94.34 362 -93.68 362 -93 362 C-93 362.66 -93 363.32 -93 364 C-90.03 364.99 -90.03 364.99 -87 366 C-87 366.66 -87 367.32 -87 368 C-86.01 368 -85.02 368 -84 368 C-84 368.66 -84 369.32 -84 370 C-83.34 370 -82.68 370 -82 370 C-82 370.99 -82 371.98 -82 373 C-81.34 373 -80.68 373 -80 373 C-80 373.66 -80 374.32 -80 375 C-77.66666667 377.66666667 -77.66666667 377.66666667 -75 380 C-74.34 380 -73.68 380 -73 380 C-73 380.66 -73 381.32 -73 382 C-69.32547562 384.8394052 -67.73113419 386 -63 386 C-63 386.66 -63 387.32 -63 388 C-61.68 388.33 -60.36 388.66 -59 389 C-59 389.66 -59 390.32 -59 391 C-57.68 391 -56.36 391 -55 391 C-55 391.66 -55 392.32 -55 393 C-53.35 393.33 -51.7 393.66 -50 394 C-50 394.66 -50 395.32 -50 396 C-48.35 396 -46.7 396 -45 396 C-45 396.66 -45 397.32 -45 398 C-43.35218658 398.48061225 -41.70344132 398.95820284 -40.05078125 399.421875 C-38.09191949 399.97408746 -36.13949952 400.54900014 -34.1875 401.125 C-29.47754194 402.30942953 -24.82518547 402.17797815 -20 402 C-20 402.66 -20 403.32 -20 404 C-6.12742155 405.55062753 8.13554825 405.74474 22 404 C22 403.34 22 402.68 22 402 C22.94359375 402.03480469 22.94359375 402.03480469 23.90625 402.0703125 C29.67016398 402.19184081 34.47263742 401.63773706 40 400 C40 399.34 40 398.68 40 398 C41.98 398 43.96 398 46 398 C46 397.34 46 396.68 46 396 C46.886875 396.061875 47.77375 396.12375 48.6875 396.1875 C52.36472369 395.97935526 54.09962455 395.21793417 57 393 C57 392.34 57 391.68 57 391 C58.32 391 59.64 391 61 391 C61 390.34 61 389.68 61 389 C62.65 388.67 64.3 388.34 66 388 C66 387.34 66 386.68 66 386 C66.99 386 67.98 386 69 386 C69 385.34 69 384.68 69 384 C69.928125 383.7834375 69.928125 383.7834375 70.875 383.5625 C73.03258322 383.06847775 73.03258322 383.06847775 75 382 C75 381.34 75 380.68 75 380 C75.99 380 76.98 380 78 380 C78 379.34 78 378.68 78 378 C79.32 377.67 80.64 377.34 82 377 C82 376.34 82 375.68 82 375 C82.99 374.67 83.98 374.34 85 374 C85.66 373.67 86.32 373.34 87 373 C87 372.01 87 371.02 87 370 C87.66 370 88.32 370 89 370 C89 369.34 89 368.68 89 368 C89.66 368 90.32 368 91 368 C91 367.34 91 366.68 91 366 C91.66 366 92.32 366 93 366 C93 365.34 93 364.68 93 364 C93.99 364 94.98 364 96 364 C96 363.34 96 362.68 96 362 C96.66 362 97.32 362 98 362 C98 361.01 98 360.02 98 359 C98.66 359 99.32 359 100 359 C100 358.34 100 357.68 100 357 C100.99 356.67 101.98 356.34 103 356 C103 355.01 103 354.02 103 353 C103.66 353 104.32 353 105 353 C105.99 350.03 105.99 350.03 107 347 C107.66 347 108.32 347 109 347 C109 345.68 109 344.36 109 343 C109.66 343 110.32 343 111 343 C111.33 341.35 111.66 339.7 112 338 C112.66 338 113.32 338 114 338 C114 336.68 114 335.36 114 334 C114.66 334 115.32 334 116 334 C118.21854707 329.37802694 119.38281159 326.23175837 119 321 C119.66 321 120.32 321 121 321 C121 319.02 121 317.04 121 315 C121.66 315 122.32 315 123 315 C124.58516884 310.66720517 125.37390321 306.56156234 126 302 C126.33 301.67 126.66 301.34 127 301 C127.0883967 298.6243148 127.11530305 296.27791326 127.09765625 293.90234375 C127.0962413 293.19348526 127.09482635 292.48462677 127.09336853 291.75428772 C127.08775443 289.48198288 127.07519963 287.20977525 127.0625 284.9375 C127.05748681 283.40039204 127.05292359 281.86328255 127.04882812 280.32617188 C127.03778042 276.55074358 127.02050641 272.77538829 127 269 C126.34 269 125.68 269 125 269 C125.01571045 267.72322388 125.01571045 267.72322388 125.03173828 266.4206543 C125.06618115 263.20940179 125.0910723 259.99824461 125.10986328 256.78686523 C125.11981266 255.40695056 125.13337705 254.02705635 125.15087891 252.6472168 C125.25529929 244.19223657 124.9269278 236.25189996 123 228 C122.34 228 121.68 228 121 228 C121 226.02 121 224.04 121 222 C120.34 222 119.68 222 119 222 C119 220.68 119 219.36 119 218 C118.34 218 117.68 218 117 218 C116.67 216.35 116.34 214.7 116 213 C115.34 213 114.68 213 114 213 C114 211.68 114 210.36 114 209 C113.34 209 112.68 209 112 209 C111.67 207.68 111.34 206.36 111 205 C110.34 205 109.68 205 109 205 C109 204.01 109 203.02 109 202 C108.34 202 107.68 202 107 202 C107 200.68 107 199.36 107 198 C106.34 198 105.68 198 105 198 C105 197.01 105 196.02 105 195 C104.34 195 103.68 195 103 195 C102.67 193.68 102.34 192.36 102 191 C101.34 191 100.68 191 100 191 C100 190.01 100 189.02 100 188 C98.68 187.67 97.36 187.34 96 187 C96 186.01 96 185.02 96 184 C95.01 184 94.02 184 93 184 C93 183.34 93 182.68 93 182 C92.34 182 91.68 182 91 182 C91 181.01 91 180.02 91 179 C89.03814584 177.28859531 87.03697617 175.62126675 85 174 C84.67 173.34 84.34 172.68 84 172 C83.34 172 82.68 172 82 172 C82 171.34 82 170.68 82 170 C79.35261084 168.5393715 78.10551666 168 75 168 C75 167.34 75 166.68 75 166 C74.01 166 73.02 166 72 166 C72 165.34 72 164.68 72 164 C71.34 164 70.68 164 70 164 C69.67 163.01 69.34 162.02 69 161 C68.01 161 67.02 161 66 161 C66 160.34 66 159.68 66 159 C64.68 159 63.36 159 62 159 C61.67 158.01 61.34 157.02 61 156 C59.68 156 58.36 156 57 156 C57 155.34 57 154.68 57 154 C55.68 154 54.36 154 53 154 C53 153.34 53 152.68 53 152 C48.8803623 150.70756464 45.33168317 149.73747375 41 150 C41 149.34 41 148.68 41 148 C34.43345544 145.6969113 28.96327638 144.66306727 22 145 C22 144.34 22 143.68 22 143 C16.60653012 142.97535151 11.21309275 142.95716469 5.81958008 142.94506836 C3.98331125 142.94002769 2.14704646 142.93319523 0.31079102 142.92456055 C-2.32276401 142.91248328 -4.95626616 142.90676919 -7.58984375 142.90234375 C-8.41588608 142.89718246 -9.24192841 142.89202118 -10.09300232 142.88670349 C-13.85102132 142.51910274 -13.85102132 142.51910274 -17 144 Z " fill="#000000" transform="translate(299,14)"/>
<path d="M0 0 C1.22332031 -0.01417969 2.44664062 -0.02835938 3.70703125 -0.04296875 C7.08013091 0.18039026 9.12265118 0.8832035 12.1875 2.1875 C14.11653132 2.4634478 16.0564032 2.67199903 18 2.8125 C18.97582031 2.88726562 19.95164062 2.96203125 20.95703125 3.0390625 C21.69308594 3.08804688 22.42914063 3.13703125 23.1875 3.1875 C23.1875 3.8475 23.1875 4.5075 23.1875 5.1875 C25.8275 5.1875 28.4675 5.1875 31.1875 5.1875 C31.1875 5.8475 31.1875 6.5075 31.1875 7.1875 C32.28578125 7.34412109 32.28578125 7.34412109 33.40625 7.50390625 C36.42535706 8.24596206 38.1782254 9.31814558 40.6875 11.125 C43.06601875 12.82932593 45.10430689 14.15486081 47.8359375 15.2265625 C50.9890263 16.515034 52.19998602 18.4712309 54.1875 21.1875 C54.765 21.744375 55.3425 22.30125 55.9375 22.875 C57.1875 24.1875 57.1875 24.1875 57.1875 26.1875 C57.8475 26.1875 58.5075 26.1875 59.1875 26.1875 C59.1875 26.8475 59.1875 27.5075 59.1875 28.1875 C59.826875 28.455625 60.46625 28.72375 61.125 29 C63.1875 30.1875 63.1875 30.1875 64.1875 33.1875 C64.8475 33.1875 65.5075 33.1875 66.1875 33.1875 C66.1875 34.5075 66.1875 35.8275 66.1875 37.1875 C66.8475 37.1875 67.5075 37.1875 68.1875 37.1875 C68.44144531 37.86296875 68.69539062 38.5384375 68.95703125 39.234375 C69.47330078 40.57242188 69.47330078 40.57242188 70 41.9375 C70.33644531 42.81921875 70.67289063 43.7009375 71.01953125 44.609375 C72.05939534 47.18656626 72.05939534 47.18656626 73.69921875 49.078125 C77.70352892 54.75352524 77.67818348 61.99105966 78.1875 68.6875 C79.05176003 83.64507364 79.05176003 83.64507364 82.1875 98.1875 C82.8475 98.1875 83.5075 98.1875 84.1875 98.1875 C84.1875 99.1775 84.1875 100.1675 84.1875 101.1875 C85.1775 101.1875 86.1675 101.1875 87.1875 101.1875 C87.1875 105.4775 87.1875 109.7675 87.1875 114.1875 C86.5275 114.1875 85.8675 114.1875 85.1875 114.1875 C84.8575 115.8375 84.5275 117.4875 84.1875 119.1875 C83.5275 119.1875 82.8675 119.1875 82.1875 119.1875 C82.1875 120.5075 82.1875 121.8275 82.1875 123.1875 C81.5275 123.1875 80.8675 123.1875 80.1875 123.1875 C79.8575 125.4975 79.5275 127.8075 79.1875 130.1875 C78.5275 130.1875 77.8675 130.1875 77.1875 130.1875 C77.1875 131.8375 77.1875 133.4875 77.1875 135.1875 C76.5275 135.1875 75.8675 135.1875 75.1875 135.1875 C75.1875 136.8375 75.1875 138.4875 75.1875 140.1875 C74.5275 140.1875 73.8675 140.1875 73.1875 140.1875 C73.06375 141.30125 72.94 142.415 72.8125 143.5625 C72.38408286 146.9355307 71.86122509 150.2801068 71.25 153.625 C71.09660156 154.46933594 70.94320312 155.31367188 70.78515625 156.18359375 C70.58792969 156.84488281 70.39070312 157.50617188 70.1875 158.1875 C67.43622559 159.5631372 65.00571189 159.41539395 61.9375 159.5625 C55.20438172 160.05932701 50.87739849 161.05004682 46.375 166.25 C44.23790027 168.94042737 44.23790027 168.94042737 43.1875 171.1875 C42.5275 171.1875 41.8675 171.1875 41.1875 171.1875 C41.1875 172.5075 41.1875 173.8275 41.1875 175.1875 C40.5275 175.1875 39.8675 175.1875 39.1875 175.1875 C39.23970703 176.49460937 39.23970703 176.49460937 39.29296875 177.828125 C39.52717929 188.13338882 39.22533916 199.01452549 32.1875 207.1875 C31.5275 207.1875 30.8675 207.1875 30.1875 207.1875 C29.89875 207.826875 29.61 208.46625 29.3125 209.125 C28.1875 211.1875 28.1875 211.1875 26.1875 212.1875 C25.383125 212.0225 24.57875 211.8575 23.75 211.6875 C21.08301669 210.94896263 21.08301669 210.94896263 18.1875 212.1875 C18.1875 212.8475 18.1875 213.5075 18.1875 214.1875 C15.3125 214.375 15.3125 214.375 12.1875 214.1875 C11.5275 213.1975 10.8675 212.2075 10.1875 211.1875 C9.8575 211.5175 9.5275 211.8475 9.1875 212.1875 C2.55125628 212.50351161 -3.3573427 211.69684785 -9.8125 210.1875 C-9.8125 209.5275 -9.8125 208.8675 -9.8125 208.1875 C-10.40417969 208.24550781 -10.99585938 208.30351562 -11.60546875 208.36328125 C-18.13828397 208.73628049 -18.13828397 208.73628049 -21.5 206 C-22.263125 205.071875 -23.02625 204.14375 -23.8125 203.1875 C-24.90606485 202.3607859 -26.01051237 201.54828416 -27.125 200.75 C-29.8125 198.1875 -29.8125 198.1875 -30.1875 194.875 C-30.001875 193.5446875 -30.001875 193.5446875 -29.8125 192.1875 C-30.4725 192.1875 -31.1325 192.1875 -31.8125 192.1875 C-31.8125 190.5375 -31.8125 188.8875 -31.8125 187.1875 C-32.4725 187.1875 -33.1325 187.1875 -33.8125 187.1875 C-36.42572194 182.33437353 -38.15840798 177.41881514 -39.8125 172.1875 C-40.1425 171.1975 -40.4725 170.2075 -40.8125 169.1875 C-41.4725 169.1875 -42.1325 169.1875 -42.8125 169.1875 C-42.8125 168.5275 -42.8125 167.8675 -42.8125 167.1875 C-47.2524676 165.0331962 -51.28668774 164.77004154 -56.125 164.5625 C-57.23584961 164.50449219 -57.23584961 164.50449219 -58.36914062 164.4453125 C-60.18321309 164.35168295 -61.99782116 164.26853149 -63.8125 164.1875 C-63.8125 163.5275 -63.8125 162.8675 -63.8125 162.1875 C-64.44929688 161.97351563 -65.08609375 161.75953125 -65.7421875 161.5390625 C-67.8125 160.1875 -67.8125 160.1875 -68.5703125 157.6484375 C-68.69148437 156.63007813 -68.81265625 155.61171875 -68.9375 154.5625 C-69.43163513 150.8785461 -69.95049702 147.33473998 -70.9375 143.75 C-71.68666115 140.69984389 -72.00689839 138.29787431 -71.8125 135.1875 C-72.4725 135.1875 -73.1325 135.1875 -73.8125 135.1875 C-76.10898649 132.6260343 -76.8125 131.70782428 -76.8125 128.1875 C-77.4725 128.1875 -78.1325 128.1875 -78.8125 128.1875 C-79.3075 125.7125 -79.3075 125.7125 -79.8125 123.1875 C-80.4725 123.1875 -81.1325 123.1875 -81.8125 123.1875 C-82.04036458 121.13671875 -82.26822917 119.0859375 -82.49609375 117.03515625 C-82.63136614 115.17609771 -82.63136614 115.17609771 -83.8125 114.1875 C-83.88563567 111.65700598 -83.90497527 109.15445163 -83.875 106.625 C-83.87048828 105.91408203 -83.86597656 105.20316406 -83.86132812 104.47070312 C-83.84950864 102.70959987 -83.83157263 100.94853964 -83.8125 99.1875 C-83.1525 99.1875 -82.4925 99.1875 -81.8125 99.1875 C-81.8125 98.1975 -81.8125 97.2075 -81.8125 96.1875 C-81.1525 96.1875 -80.4925 96.1875 -79.8125 96.1875 C-79.4825 93.8775 -79.1525 91.5675 -78.8125 89.1875 C-78.1525 89.1875 -77.4925 89.1875 -76.8125 89.1875 C-76.8125 81.5975 -76.8125 74.0075 -76.8125 66.1875 C-76.1525 66.1875 -75.4925 66.1875 -74.8125 66.1875 C-74.68875 65.341875 -74.565 64.49625 -74.4375 63.625 C-73.53952585 58.68614215 -72.23859438 54.17603895 -70.25 49.5625 C-69.02915469 46.69616754 -68.27618024 44.24778961 -67.8125 41.1875 C-67.1525 41.1875 -66.4925 41.1875 -65.8125 41.1875 C-65.8125 39.8675 -65.8125 38.5475 -65.8125 37.1875 C-65.1525 37.1875 -64.4925 37.1875 -63.8125 37.1875 C-62.8225 34.2175 -61.8325 31.2475 -60.8125 28.1875 C-60.1525 28.1875 -59.4925 28.1875 -58.8125 28.1875 C-58.8125 27.5275 -58.8125 26.8675 -58.8125 26.1875 C-57.83399805 25.16645449 -56.83269573 24.1668879 -55.8125 23.1875 C-55.4825 22.5275 -55.1525 21.8675 -54.8125 21.1875 C-53.8225 21.1875 -52.8325 21.1875 -51.8125 21.1875 C-51.8125 20.5275 -51.8125 19.8675 -51.8125 19.1875 C-50.4925 18.8575 -49.1725 18.5275 -47.8125 18.1875 C-47.8125 17.5275 -47.8125 16.8675 -47.8125 16.1875 C-46.1625 15.8575 -44.5125 15.5275 -42.8125 15.1875 C-42.4825 14.1975 -42.1525 13.2075 -41.8125 12.1875 C-40.4925 12.1875 -39.1725 12.1875 -37.8125 12.1875 C-37.8125 11.5275 -37.8125 10.8675 -37.8125 10.1875 C-36.4925 10.1875 -35.1725 10.1875 -33.8125 10.1875 C-33.8125 9.5275 -33.8125 8.8675 -33.8125 8.1875 C-28.45249211 5.93065457 -24.6147175 4.82486141 -18.8125 5.1875 C-18.8125 4.5275 -18.8125 3.8675 -18.8125 3.1875 C-17.76449219 2.98833984 -17.76449219 2.98833984 -16.6953125 2.78515625 C-15.33019531 2.52025391 -15.33019531 2.52025391 -13.9375 2.25 C-12.58011719 1.98896484 -12.58011719 1.98896484 -11.1953125 1.72265625 C-3.60922888 0.01889649 -3.60922888 0.01889649 0 0 Z M43.1875 110.1875 C43.1875 110.8475 43.1875 111.5075 43.1875 112.1875 C40.8775 112.1875 38.5675 112.1875 36.1875 112.1875 C36.1875 112.8475 36.1875 113.5075 36.1875 114.1875 C35.445 114.31125 34.7025 114.435 33.9375 114.5625 C31.38608515 115.14236701 29.4607427 115.92458739 27.1875 117.1875 C27.1875 117.8475 27.1875 118.5075 27.1875 119.1875 C25.8675 119.1875 24.5475 119.1875 23.1875 119.1875 C23.1875 120.1775 23.1875 121.1675 23.1875 122.1875 C22.1975 122.5175 21.2075 122.8475 20.1875 123.1875 C20.1875 126.1575 20.1875 129.1275 20.1875 132.1875 C21.1775 132.5175 22.1675 132.8475 23.1875 133.1875 C23.1875 133.8475 23.1875 134.5075 23.1875 135.1875 C25.4975 135.1875 27.8075 135.1875 30.1875 135.1875 C30.1875 135.8475 30.1875 136.5075 30.1875 137.1875 C33.8175 137.1875 37.4475 137.1875 41.1875 137.1875 C41.1875 136.5275 41.1875 135.8675 41.1875 135.1875 C44.4875 135.1875 47.7875 135.1875 51.1875 135.1875 C51.1875 134.5275 51.1875 133.8675 51.1875 133.1875 C52.1775 132.8575 53.1675 132.5275 54.1875 132.1875 C54.38272373 129.60453983 54.56894403 127.02145921 54.75 124.4375 C54.80607422 123.70789063 54.86214844 122.97828125 54.91992188 122.2265625 C55.16459908 118.63796349 55.18416259 115.63722775 54.1875 112.1875 C52.8675 112.1875 51.5475 112.1875 50.1875 112.1875 C50.1875 111.5275 50.1875 110.8675 50.1875 110.1875 C47.8775 110.1875 45.5675 110.1875 43.1875 110.1875 Z M-46.8125 114.1875 C-47.1425 115.1775 -47.4725 116.1675 -47.8125 117.1875 C-48.4725 117.1875 -49.1325 117.1875 -49.8125 117.1875 C-52.10498809 122.0590372 -52.59850343 125.92774015 -50.8125 131.0625 C-50.4825 131.76375 -50.1525 132.465 -49.8125 133.1875 C-49.1525 133.1875 -48.4925 133.1875 -47.8125 133.1875 C-47.4825 134.5075 -47.1525 135.8275 -46.8125 137.1875 C-37.44831825 139.72693912 -28.03639734 140.67239075 -18.8125 137.1875 C-18.8125 136.5275 -18.8125 135.8675 -18.8125 135.1875 C-17.8225 135.1875 -16.8325 135.1875 -15.8125 135.1875 C-15.52224302 130.25313126 -15.51988517 127.02888396 -18.8125 123.1875 C-21.88811246 121.82769119 -21.88811246 121.82769119 -24.8125 121.1875 C-24.8125 120.5275 -24.8125 119.8675 -24.8125 119.1875 C-25.4725 119.1875 -26.1325 119.1875 -26.8125 119.1875 C-26.8125 118.5275 -26.8125 117.8675 -26.8125 117.1875 C-27.616875 116.878125 -28.42125 116.56875 -29.25 116.25 C-31.8125 115.1875 -31.8125 115.1875 -32.8125 114.1875 C-35.16563555 114.11478259 -37.52083668 114.10379132 -39.875 114.125 C-41.16535156 114.13402344 -42.45570313 114.14304687 -43.78515625 114.15234375 C-44.78417969 114.16394531 -45.78320312 114.17554688 -46.8125 114.1875 Z M-1.8125 144.1875 C-1.8125 144.8475 -1.8125 145.5075 -1.8125 146.1875 C-2.4725 146.1875 -3.1325 146.1875 -3.8125 146.1875 C-3.8125 147.1775 -3.8125 148.1675 -3.8125 149.1875 C-4.4725 149.1875 -5.1325 149.1875 -5.8125 149.1875 C-6.1425 150.5075 -6.4725 151.8275 -6.8125 153.1875 C-7.4725 153.1875 -8.1325 153.1875 -8.8125 153.1875 C-8.8125 155.1675 -8.8125 157.1475 -8.8125 159.1875 C-9.4725 159.1875 -10.1325 159.1875 -10.8125 159.1875 C-10.8125 163.4775 -10.8125 167.7675 -10.8125 172.1875 C-10.1525 172.1875 -9.4925 172.1875 -8.8125 172.1875 C-8.8125 172.8475 -8.8125 173.5075 -8.8125 174.1875 C-4.96878802 173.8031288 -2.26945701 173.46564774 1.0625 171.4375 C4.68846699 169.9871132 5.30424112 170.31226914 8.8125 171.625 C9.54726563 171.95371094 10.28203125 172.28242188 11.0390625 172.62109375 C13.21375465 173.40498468 13.21375465 173.40498468 15.40625 172.44140625 C17.42854407 171.27606226 17.42854407 171.27606226 18.0625 168.6875 C18.23027018 163.9899349 17.27598018 159.73932619 16.1875 155.1875 C15.5275 155.1875 14.8675 155.1875 14.1875 155.1875 C14.1875 153.5375 14.1875 151.8875 14.1875 150.1875 C13.5275 150.1875 12.8675 150.1875 12.1875 150.1875 C12.1875 148.8675 12.1875 147.5475 12.1875 146.1875 C11.5275 146.1875 10.8675 146.1875 10.1875 146.1875 C10.1875 145.5275 10.1875 144.8675 10.1875 144.1875 C5.77469908 141.24563272 2.69759946 141.51484847 -1.8125 144.1875 Z " fill="#000000" transform="translate(298.8125,185.8125)"/>
</svg>
